<svg viewBox="0 0 100 100" xmlns="http://www.w3.org/2000/svg">
  <defs>
    <linearGradient id="neonGlow" x1="0%" y1="0%" x2="100%" y2="100%">
      <stop offset="0%" stop-color="#00f2fe">
        <animate attributeName="stop-color" values="#00f2fe;#f093fb;#00f2fe" dur="4s" repeatCount="indefinite" />
      </stop>
      <stop offset="100%" stop-color="#4facfe">
        <animate attributeName="stop-color" values="#4facfe;#f5576c;#4facfe" dur="4s" repeatCount="indefinite" />
      </stop>
    </linearGradient>
  </defs>
  <rect width="100" height="100" rx="22" fill="#09090b" stroke="url(#neonGlow)" stroke-width="6"/>
  <text x="50" y="58" font-family="system-ui, -apple-system, sans-serif" font-weight="900" font-size="48" fill="url(#neonGlow)" text-anchor="middle" letter-spacing="-2">NTH</text>
  <g>
    <rect x="14" y="68" width="72" height="20" rx="3" fill="none" stroke="url(#neonGlow)" stroke-width="2"/>
    <path d="M18 71h4v3h-4z M24 71h4v3h-4z M30 71h4v3h-4z M36 71h4v3h-4z M42 71h4v3h-4z M48 71h4v3h-4z M54 71h4v3h-4z M60 71h4v3h-4z M66 71h4v3h-4z M72 71h4v3h-4z M78 71h4v3h-4z" fill="url(#neonGlow)"/>
    <path d="M21 76h4v3h-4z M27 76h4v3h-4z M33 76h4v3h-4z M39 76h4v3h-4z M45 76h4v3h-4z M51 76h4v3h-4z M57 76h4v3h-4z M63 76h4v3h-4z M69 76h4v3h-4z M75 76h4v3h-4z" fill="url(#neonGlow)"/>
    <path d="M24 81h4v3h-4z M30 81h4v3h-4z M36 81h28v3h-28z M66 81h4v3h-4z M72 81h4v3h-4z" fill="url(#neonGlow)"/>
  </g>
</svg>